<svg width="78" height="64" viewBox="0 0 78 64" fill="none" xmlns="http://www.w3.org/2000/svg">
<path fill-rule="evenodd" clip-rule="evenodd" d="M39.6927 0.0169068C33.4691 -0.190354 27.1812 1.50762 21.7525 5.13127C15.6554 9.20544 11.3944 15.2218 9.43172 21.9476C8.88973 21.8814 8.24071 21.9106 7.47005 22.1286C4.59273 22.945 2.42866 25.3027 1.45561 27.3792C0.193558 30.0852 -0.338702 33.6641 0.222749 37.3588C0.780309 41.0418 2.33622 44.0777 4.28233 45.9625C6.23427 47.8483 8.43824 48.4613 10.6276 48.0011C13.8873 47.3053 15.5036 46.7848 15.0472 43.7479L12.8374 29.0265C13.2831 21.0592 17.4078 13.5589 24.3068 8.94661C33.5411 2.77843 45.6478 3.17349 54.4559 9.93523C60.5832 14.6331 64.1406 21.6722 64.5513 29.0616L63.0061 39.3594C59.5595 48.7912 51.0151 55.3243 41.1279 56.2516H34.5443C32.8453 56.2516 31.4772 57.6197 31.4772 59.3167V60.9339C31.4772 62.6319 32.8453 64 34.5443 64H42.8454C44.5434 64 45.9056 62.6319 45.9056 60.9339V60.0883C53.3612 58.2687 59.8689 53.6866 64.1066 47.2966L66.7659 48.002C68.93 48.5635 71.1603 47.8483 73.1112 45.9635C75.0573 44.0777 76.6123 41.0428 77.1708 37.3598C77.7342 33.6651 77.1864 30.092 75.9389 27.3801C74.6866 24.6682 72.8213 22.9459 70.6679 22.328C69.7659 22.0682 68.787 21.9729 67.9472 21.9476C66.1724 15.866 62.5186 10.3352 57.2524 6.29699C52.0748 2.32402 45.9163 0.221248 39.6927 0.0169068Z" fill="#FB923C"/>
<path fill-rule="evenodd" clip-rule="evenodd" d="M49.4083 26.5016C51.6026 26.5016 53.3813 28.2803 53.3862 30.4804C53.3813 32.6746 51.6026 34.4583 49.4083 34.4583C47.2083 34.4583 45.4246 32.6746 45.4246 30.4804C45.4246 28.2813 47.2092 26.5016 49.4083 26.5016ZM38.695 26.5016C40.8941 26.5016 42.6728 28.2803 42.6728 30.4804C42.6728 32.6746 40.8941 34.4583 38.695 34.4583C36.494 34.4583 34.7152 32.6746 34.7152 30.4804C34.7152 28.2813 36.494 26.5016 38.695 26.5016ZM27.9856 26.5016C30.1798 26.5016 31.9634 28.2803 31.9634 30.4804C31.9634 32.6746 30.1798 34.4583 27.9856 34.4583C25.7865 34.4583 24.0068 32.6746 24.0068 30.4804C24.0068 28.2813 25.7865 26.5016 27.9856 26.5016ZM38.695 9.41284C27.0281 9.41284 17.6265 18.505 17.6265 30.4804C17.6265 36.2321 19.8012 41.3154 23.3441 45.0451L22.0869 50.681C21.6724 52.5356 22.9588 53.7831 24.6256 52.8548L30.1292 49.7848C32.7448 50.9204 35.6377 51.548 38.695 51.548C50.3658 51.548 59.7616 42.4616 59.7616 30.4804C59.7616 18.505 50.3658 9.41284 38.695 9.41284Z" fill="#FB923C"/>
</svg>
