<svg width="94" height="76" viewBox="0 0 94 76" fill="none" xmlns="http://www.w3.org/2000/svg">
<path d="M55.4491 14.5281C42.5266 14.5281 32.0132 25.0413 32.0132 37.9638C32.0132 50.8863 42.5266 61.3995 55.4491 61.3995C68.3715 61.3995 78.8848 50.8863 78.8848 37.9638C78.8848 25.0413 68.3715 14.5281 55.4491 14.5281ZM66.5002 40.7016H52.7113V21.484H58.1868V35.226H66.5002V40.7016Z" fill="#FB923C"/>
<path d="M55.5538 0.000140742C47.2166 -0.022309 39.5037 2.64209 33.2284 7.17347H12.5069C9.23999 7.17347 6.59183 9.82181 6.59183 13.0885C6.59183 16.3554 9.24017 19.0036 12.5069 19.0036H22.5317C20.6216 22.3064 19.196 25.9238 18.3478 29.7583H5.91505C2.64834 29.7585 0 32.4066 0 35.6735C0 38.9404 2.64834 41.5886 5.91505 41.5886H17.6188C17.9722 45.361 18.8771 48.9727 20.2522 52.3433H16.0273C12.7604 52.3433 10.1122 54.9916 10.1122 58.2583C10.1122 61.5252 12.7606 64.1734 16.0273 64.1734H27.9008C34.8241 71.458 44.606 76 55.4492 76C76.4361 76.0002 93.4493 58.9871 93.4493 38.0003C93.4493 17.0046 76.5492 0.0567214 55.5538 0.000140742ZM55.4492 66.9113C39.5075 66.9113 26.538 53.9418 26.538 38.0001C26.538 22.0584 39.5075 9.08882 55.4492 9.08882C71.3909 9.08882 84.3605 22.0584 84.3605 38.0001C84.3605 53.9418 71.3909 66.9113 55.4492 66.9113Z" fill="#FB923C"/>
</svg>
