<svg width="76" height="86" viewBox="0 0 76 86" fill="none" xmlns="http://www.w3.org/2000/svg">
<path d="M49.2447 46.9256V34.2537H61.5281L34.6231 0L5.03906 34.2537H17.0723L35.9821 60.9182C38.1151 54.5269 43.0101 49.3877 49.2447 46.9256Z" fill="#FB923C"/>
<path d="M34.8368 68.999H30.1792V86H43.5235C38.4436 82.0003 35.1034 75.8871 34.8368 68.999Z" fill="#FB923C"/>
<path d="M0.527344 64.1278H7.50561V85.9999H17.0723H25.3079V64.1278H32.3253L17.0847 42.4834L0.527344 64.1278Z" fill="#FB923C"/>
<path d="M57.5805 50.2161C47.7149 50.2161 39.6885 58.2424 39.6885 68.1081C39.6885 77.9737 47.7149 86.0001 57.5805 86.0001C67.4462 86.0001 75.4725 77.9737 75.4725 68.1081C75.4725 58.2424 67.4462 50.2161 57.5805 50.2161ZM55.5138 76.2978L48.8418 69.6257L52.3884 66.0792L55.5138 69.2046L62.7728 61.9458L66.3193 65.4925L55.5138 76.2978Z" fill="#FB923C"/>
</svg>
