<svg width="70" height="70" viewBox="0 0 70 70" fill="none" xmlns="http://www.w3.org/2000/svg">
<path fill-rule="evenodd" clip-rule="evenodd" d="M10.7677 34.8867C10.7677 21.5871 21.5886 10.7661 34.8882 10.7661C48.1879 10.7661 59.0088 21.5871 59.0088 34.8867C59.0088 48.1863 48.1879 59.0058 34.8882 59.0058C21.5886 59.0058 10.7677 48.1863 10.7677 34.8867ZM18.3483 34.0747L24.5106 23.8692L23.0374 22.9795L16.8751 33.185L18.3483 34.0747ZM24.0657 39.1523L25.999 36.9525C26.3463 36.5579 26.3067 35.9531 25.9121 35.6058C25.7309 35.4473 25.5069 35.3696 25.283 35.3696C25.0179 35.3696 24.7543 35.4793 24.5654 35.6926L22.5804 37.9519C22.4143 38.1408 22.3305 38.3876 22.3473 38.6435C22.3641 38.8979 22.4768 39.131 22.6672 39.2986C23.0618 39.6459 23.6666 39.6063 24.0139 39.2118L24.0657 39.1523ZM26.8734 41.6188L28.2415 40.0618V40.0603L28.857 39.3611C29.2043 38.965 29.1662 38.3617 28.7701 38.0143C28.3755 37.667 27.7707 37.7051 27.4234 38.1012L27.4204 38.0981C27.4036 38.1179 27.3884 38.1393 27.3716 38.1591L25.4384 40.3604C25.2723 40.5509 25.19 40.7946 25.2068 41.0505C25.2236 41.3065 25.3363 41.5396 25.5267 41.7056C25.9213 42.053 26.5246 42.0134 26.8734 41.6188ZM29.9066 43.8262L31.0477 42.5283C31.2137 42.3379 31.2975 42.0926 31.2807 41.8366C31.264 41.5807 31.1497 41.3476 30.9608 41.1816C30.5662 40.8342 29.9614 40.8723 29.6141 41.2684L28.2445 42.8253C28.0785 43.0158 27.9947 43.2611 28.0114 43.517C28.0282 43.7729 28.1425 44.006 28.3314 44.1721C28.7275 44.5194 29.3307 44.4798 29.6781 44.0852L29.7588 43.9923L29.9036 43.8278C29.9066 43.8263 29.9066 43.8262 29.9066 43.8262ZM32.7128 46.2942C33.0601 45.8981 33.0205 45.2948 32.6259 44.9475C32.4446 44.7875 32.2207 44.7098 31.9968 44.7098C31.7317 44.7098 31.4681 44.8195 31.2792 45.0328L31.0812 45.2598L31.069 45.2735C30.7216 45.6696 30.7597 46.2729 31.1558 46.6202C31.3462 46.7878 31.59 46.8716 31.8475 46.8533C32.1034 46.8366 32.3365 46.7238 32.5025 46.5334L32.7128 46.2942ZM35.7338 46.6416C36.0796 46.247 36.043 45.6437 35.6484 45.2964L35.6469 45.2948L34.3032 44.1142C34.841 44.914 34.9248 45.9438 34.5272 46.8183C34.937 47.0437 35.4367 46.9798 35.7338 46.6416ZM45.4243 38.9634L35.5266 30.2661C35.2143 30.0818 35.0909 30.1549 35.0421 30.1839C34.7466 30.3575 34.5226 30.9593 34.547 31.328C34.6354 32.629 33.9087 34.0717 32.696 35.0056C31.6129 35.8389 30.3499 36.1009 29.2287 35.7216C28.9621 35.6317 28.7518 35.423 28.6589 35.1579C28.566 34.8913 28.601 34.5973 28.7534 34.3611C29.3445 33.4425 29.2073 32.5452 29.0504 31.5047C28.8326 30.0635 28.5645 28.2765 30.583 26.6617C30.5221 26.6663 30.4611 26.6723 30.4063 26.6769C29.9554 26.7196 29.4343 26.7683 28.8691 26.7683C27.818 26.7683 26.6129 26.5992 25.414 25.9091L20.9945 33.2292C21.9116 33.537 22.6687 33.9879 23.2035 34.4754C24.2181 33.3343 25.9716 33.2231 27.1202 34.2332C27.6443 34.6948 27.952 35.3102 28.0373 35.9546C28.7244 35.9272 29.4221 36.1512 29.9782 36.6402C30.7232 37.2953 31.0309 38.2611 30.8846 39.1737C31.3462 39.2666 31.7911 39.4753 32.1704 39.8074C33.1043 40.6286 33.3557 41.9418 32.8773 43.0234C33.2155 43.1361 33.537 43.3159 33.8218 43.5642C33.6923 43.2519 33.7411 42.8817 33.9787 42.6105C34.3109 42.2312 34.8898 42.1946 35.2676 42.5268L37.7355 44.6961C37.926 44.8637 38.1697 44.946 38.4272 44.9292C38.6831 44.9125 38.9162 44.7997 39.0823 44.6093C39.4266 44.2178 39.39 43.616 39.0015 43.2687L35.1061 39.8455C34.7268 39.5119 34.6887 38.9345 35.0223 38.5552C35.3544 38.1758 35.9333 38.1393 36.3127 38.4729L41.0399 42.6273C41.4345 42.9731 42.0393 42.935 42.3866 42.5389C42.7324 42.1444 42.6943 41.5411 42.3013 41.1937L37.7188 37.1673C37.3395 36.8337 37.3029 36.2563 37.635 35.877C37.9686 35.4976 38.546 35.4611 38.9254 35.7947L43.5048 39.8181L43.5063 39.8196V39.8211L44.1629 40.397C44.5575 40.7443 45.1623 40.7062 45.5096 40.3102C45.8585 39.9156 45.8204 39.3108 45.4243 38.9634ZM46.701 23.6224L51.3429 34.6049L52.9273 33.9346L48.2854 22.9536L46.701 23.6224ZM39.0609 25.4064C37.5725 25.0545 36.2822 24.7482 35.3179 25.2114C34.2926 25.8863 33.537 26.5489 32.8682 27.1355C32.5025 27.4554 32.1598 27.757 31.8231 28.013C30.5221 28.9986 30.6561 29.8868 30.8603 31.232C30.9806 32.0288 31.1208 32.958 30.8923 33.9452C31.1985 33.8325 31.4453 33.6634 31.5839 33.5568C32.303 33.0038 32.7722 32.1369 32.7265 31.4498C32.6625 30.5084 33.1272 29.1921 34.1143 28.6086C34.5455 28.3542 35.4382 28.0343 36.5686 28.761C36.6067 28.7854 36.6432 28.8128 36.6783 28.8432L45.9316 36.9738C46.864 36.5 47.1169 36.0994 47.4002 35.6439C47.7857 35.0269 48.1818 34.4967 49.1187 34.0336L45.5477 25.5861C43.127 26.3692 40.8921 25.8405 39.0609 25.4064ZM34.8882 12.5943C22.5956 12.5943 12.5958 22.5941 12.5958 34.8867C12.5958 47.1778 22.5956 57.1777 34.8882 57.1777C47.1793 57.1777 57.1792 47.1778 57.1792 34.8867C57.1807 22.5941 47.1809 12.5943 34.8882 12.5943ZM39.4829 23.6285C37.7005 23.205 36.0156 22.8059 34.4495 23.6011C34.4205 23.6163 34.3916 23.6331 34.3642 23.6514C33.6619 24.1099 33.0723 24.5654 32.562 24.9889C31.884 24.7056 31.0507 24.7818 30.2357 24.8579C29.0261 24.9707 27.6778 25.0941 26.3539 24.34C26.6693 23.694 26.4454 22.9003 25.8177 22.5225L23.6194 21.1956C23.2995 21.0021 22.9216 20.9442 22.5575 21.0341C22.1934 21.1255 21.8857 21.351 21.6922 21.6724L15.0912 32.6031C14.8977 32.923 14.8398 33.3008 14.9312 33.6664C15.0211 34.0305 15.2481 34.3383 15.568 34.5318L17.7663 35.8587C17.9933 35.9958 18.2432 36.0598 18.49 36.0598C18.9653 36.0598 19.4299 35.8191 19.695 35.3818L20.018 34.8456C20.9625 35.0924 21.6435 35.5205 21.9984 35.845L21.2078 36.7453C20.7188 37.3014 20.475 38.0174 20.5238 38.7608C20.571 39.5043 20.9046 40.1822 21.4607 40.6712C21.9878 41.1359 22.6429 41.3629 23.2964 41.3629C23.333 41.3629 23.368 41.3583 23.4046 41.3568C23.4929 42.0255 23.8113 42.6319 24.3202 43.0798C24.8473 43.5429 25.5023 43.7699 26.1544 43.7699C26.1711 43.7699 26.1879 43.7684 26.2046 43.7684C26.2823 44.4585 26.6038 45.0861 27.1279 45.5462C27.655 46.0093 28.31 46.2363 28.9636 46.2363C28.9849 46.2363 29.0078 46.2333 29.0291 46.2333C29.1068 46.8914 29.4161 47.5236 29.9508 47.9944C30.4611 48.4423 31.1055 48.6845 31.782 48.6845C31.8429 48.6845 31.9038 48.6814 31.9663 48.6784C32.4629 48.6464 32.9291 48.4834 33.3328 48.2153C33.8477 48.5931 34.4464 48.7805 35.0375 48.7805C35.8084 48.7805 36.5671 48.4651 37.1094 47.8481C37.4126 47.5023 37.6137 47.1016 37.7173 46.6812C37.9275 46.7314 38.1423 46.7604 38.3632 46.7604C38.4241 46.7604 38.4851 46.7573 38.5475 46.7543C39.291 46.7055 39.9689 46.3734 40.4579 45.8159C40.7687 45.4639 40.9713 45.0526 41.0719 44.623C41.2684 44.6672 41.4695 44.69 41.6706 44.69C42.4445 44.69 43.2138 44.3716 43.7623 43.7455C44.102 43.3601 44.3122 42.9046 44.4021 42.4308C44.5316 42.4506 44.6626 42.4613 44.7952 42.4613C45.5691 42.4613 46.3384 42.1428 46.8868 41.5167C47.6806 40.6133 47.7796 39.3382 47.2311 38.3404C48.2564 37.7203 48.6357 37.1186 48.9511 36.6112C49.1735 36.2548 49.3441 35.9836 49.8332 35.72C50.0617 36.2472 50.5797 36.564 51.122 36.564C51.3048 36.564 51.4891 36.529 51.6674 36.4528L54.0318 35.4534C54.7447 35.1518 55.0799 34.3261 54.7782 33.6131L49.8057 21.8507C49.5041 21.1377 48.6784 20.8025 47.9654 21.1042L45.6011 22.1036C44.9048 22.3991 44.5697 23.1928 44.8363 23.8951C42.9609 24.4512 41.1953 24.0338 39.4829 23.6285ZM9.76066 19.8991C8.30273 22.3397 7.21195 24.9691 6.51879 27.7174C6.43043 28.0663 6.14555 28.3314 5.78906 28.3938L0 29.4054V34.8867V40.368L5.78906 41.3796C6.14402 41.4405 6.43043 41.7071 6.51879 42.056C7.21043 44.8028 8.30121 47.4337 9.75914 49.8728C9.945 50.182 9.92977 50.572 9.72258 50.8676L6.34055 55.6786L14.0933 63.4314L18.9043 60.0509C19.1999 59.8437 19.5899 59.8284 19.8991 60.0143C22.3397 61.4722 24.9691 62.563 27.7159 63.2546C28.0648 63.343 28.3314 63.6279 28.3923 63.9844L29.4039 69.7734H40.368L41.3796 63.9844C41.4421 63.6279 41.7072 63.343 42.0575 63.2546C44.8043 62.563 47.4353 61.4722 49.8743 60.0143C50.1836 59.8284 50.5736 59.8437 50.8676 60.0509L55.6786 63.4314L63.4314 55.6786L60.0509 50.8676C59.8437 50.572 59.8284 50.1836 60.0143 49.8728C61.4722 47.4337 62.563 44.8043 63.2562 42.056C63.3445 41.7056 63.6294 41.4405 63.9844 41.3796L69.7734 40.368V29.4054L63.9844 28.3938C63.6279 28.3314 63.343 28.0663 63.2547 27.7174C62.563 24.9691 61.4722 22.3397 60.0143 19.9007C59.8284 19.5899 59.8437 19.2014 60.0509 18.9059L63.4329 14.0948L55.6801 6.34207L50.8691 9.72258C50.5736 9.92977 50.1836 9.94348 49.8743 9.75914C47.4353 8.30121 44.8043 7.21043 42.0575 6.51879C41.7072 6.43043 41.4421 6.14402 41.3796 5.78906L40.368 0H29.4039L28.3923 5.78906C28.3314 6.14402 28.0648 6.43043 27.7159 6.51879C24.9676 7.21043 22.3382 8.30121 19.8991 9.75914C19.5899 9.945 19.1999 9.92977 18.9043 9.72258L14.0933 6.34207L6.34359 14.0948L9.7241 18.9059C9.93281 19.1999 9.94652 19.5899 9.76066 19.8991Z" fill="#FB923C"/>
</svg>
