<svg width="89" height="87" viewBox="0 0 89 87" fill="none" xmlns="http://www.w3.org/2000/svg">
<path fill-rule="evenodd" clip-rule="evenodd" d="M26.1937 61.4119H15.8897C20.1746 67.3656 26.3601 71.7453 33.4372 73.7792C30.0407 70.4789 27.7127 65.8552 26.1937 61.4119ZM32.3588 78.4651C31.9242 77.8186 32.098 76.9434 32.7467 76.5105C33.3954 76.0775 34.2735 76.2506 34.7079 76.8971L38.1771 82.0617C38.6531 82.7701 38.3906 83.7336 37.6282 84.1092L32.0333 86.8542C31.3326 87.1987 30.4843 86.9119 30.1386 86.2136C29.7928 85.5153 30.0806 84.6699 30.7812 84.3253L32.3464 83.5578C13.3761 78.9079 0 61.8844 0 42.3924C0 18.98 19.0442 0 42.5358 0C56.1416 0 68.8557 6.44823 76.887 17.3917C77.349 18.0199 77.2127 18.9024 76.5822 19.3629C75.952 19.8234 75.0662 19.6875 74.6044 19.0592C67.0988 8.83218 55.2502 2.82709 42.5358 2.82709C20.6104 2.82709 2.83665 20.5409 2.83665 42.3924C2.83665 61.0024 15.8636 77.1357 34.1054 81.0655L32.3588 78.4651ZM85.8446 31.5992H88.3233C88.8715 31.5994 89.2071 30.9699 88.8564 30.5175L83.8414 24.0495C83.5714 23.7014 83.0455 23.7014 82.7755 24.0495L77.7605 30.5174C77.4096 30.9697 77.7454 31.5994 78.2938 31.5991H80.7723V45.3915C80.7723 45.876 81.1689 46.2711 81.6549 46.2711H84.9619C85.448 46.2711 85.8444 45.8759 85.8444 45.3915V31.5992H85.8446ZM64.9055 51.0761C64.6046 50.9595 64.3068 50.9595 64.0059 51.0761L43.3272 59.0895C42.8406 59.278 42.536 59.7219 42.536 60.2422V76.5268C42.536 77.0472 42.8406 77.491 43.3272 77.6795L64.0059 85.6929C64.3068 85.8095 64.6046 85.8095 64.9055 85.6929L85.5842 77.6795C86.0708 77.491 86.3754 77.0472 86.3754 76.5268V60.2422C86.3754 59.7219 86.0708 59.278 85.5842 59.0895L79.1196 56.5842C71.8129 59.4158 64.5062 62.2474 57.1994 65.0789V71.144C57.1994 71.3919 56.9088 71.5257 56.7194 71.3649L53.335 68.4922L50.1698 69.4732C49.9817 69.5315 49.792 69.3926 49.792 69.1962V62.2079L71.7112 53.7134L64.9055 51.0761ZM15.8897 23.3728H26.1937C27.7129 18.9295 30.0405 14.3058 33.4371 11.0055C26.3591 13.0398 20.1755 17.4189 15.8897 23.3728ZM29.1897 23.3728H41.1177V9.85399C35.1219 10.9057 31.1378 18.0647 29.1897 23.3728ZM43.9541 23.3728H55.8821C53.9342 18.0647 49.9498 10.9057 43.9543 9.85382L43.9541 23.3728ZM58.8781 23.3728H69.1821C64.8959 17.4188 58.7131 13.0399 51.6347 11.0055C55.0315 14.3061 57.3587 18.9295 58.8781 23.3728ZM71.0039 26.1999H59.749C60.9792 30.6575 61.7187 35.6701 61.8306 40.9788H75.2782C75.0492 35.6165 73.5227 30.5889 71.0039 26.1999ZM56.8116 26.1999H43.9543V40.9788H58.9934C58.8765 35.6171 58.0984 30.594 56.8116 26.1999ZM41.1177 26.1999H28.2602C26.9732 30.5939 26.1953 35.6171 26.0784 40.9788H41.1177V26.1999ZM25.3226 26.1999H14.0677C11.5489 30.5889 10.0224 35.6164 9.79337 40.9788H23.2411C23.3531 35.6703 24.0924 30.6575 25.3226 26.1999ZM14.0677 58.5849H25.3225C24.0922 54.1272 23.3529 49.1146 23.2411 43.8059H9.79355C10.0226 49.1684 11.5491 54.1956 14.0677 58.5849ZM28.2602 58.5849H40.05C40.2941 58.0369 40.6581 57.5493 41.1177 57.1575V43.8059H26.0784C26.1951 49.1677 26.9734 54.1907 28.2602 58.5849ZM58.5324 50.1638C58.7888 48.1137 58.9457 45.9879 58.9932 43.8059H43.9541V55.8131L58.5324 50.1638ZM73.9979 51.5663C74.724 49.0887 75.1635 46.4892 75.2782 43.8059H61.8306C61.7932 45.5762 61.6861 47.3134 61.5143 49.0083L62.978 48.4411C63.9398 48.0684 64.9716 48.0684 65.9334 48.4411L73.9979 51.5663ZM39.6993 61.4119V74.5553C34.49 72.7046 31.0154 66.3873 29.1897 61.4119H39.6993Z" fill="#FB923C"/>
</svg>
