<svg width="57" height="57" viewBox="0 0 57 57" fill="none" xmlns="http://www.w3.org/2000/svg">
<path fill-rule="evenodd" clip-rule="evenodd" d="M56.9981 42.4706C55.4139 44.6309 50.2041 47.6089 47.7365 48.9542C35.1809 55.799 28.5835 59.3337 12.4162 55.2898C11.6982 55.1102 10.7113 54.9185 9.16775 54.7836V40.4518C15.5067 38.7129 17.7681 39.773 21.2967 40.4599C22.7816 40.749 24.3491 40.9275 25.9316 41.0395C25.7989 39.6802 25.9272 38.3273 26.2908 37.0462C24.2962 36.8153 22.4953 35.687 21.4227 33.9539C20.2024 31.9824 20.1022 29.5164 21.1584 27.4524C21.8625 28.136 22.8279 28.8122 24.0544 29.4809C25.9195 30.6187 27.0882 32.54 27.3099 34.6223C28.1429 33.1677 29.3204 31.8969 30.7889 30.941C30.7283 29.0711 31.6675 27.2698 33.315 26.2647C34.257 25.7512 34.9985 25.2318 35.5393 24.7068C36.3505 26.292 36.2735 28.1859 35.3363 29.7C34.6037 30.8836 33.4282 31.6977 32.0998 31.9887C32.0452 32.0529 31.9801 32.11 31.9041 32.1563C30.2604 33.1591 29.0212 34.619 28.2833 36.2963C27.6254 37.792 27.3682 39.4609 27.5782 41.133C29.0758 41.2005 30.5658 41.2229 31.9907 41.2362C34.6784 41.2613 35.8956 42.2936 36.0075 43.808C36.0673 44.6178 35.8471 45.291 35.4188 45.8492C34.4996 46.4376 33.4316 46.8838 32.2102 47.2021C29.6946 47.8576 26.5288 47.9782 22.6799 47.6822C22.232 47.6488 21.8418 47.9849 21.8084 48.4328C21.775 48.8808 22.1111 49.271 22.5591 49.3043C26.5745 49.6133 29.9121 49.4784 32.6174 48.7734C34.2518 48.3476 37.3344 47.2814 38.0865 44.7808L50.9251 39.6376C53.9233 38.4391 57.0819 39.2316 56.9984 42.4704L56.9981 42.4706ZM6.1391 38.3944H1.4001C0.630021 38.3944 0 39.0245 0 39.7945V55.1959C0 55.966 0.630021 56.596 1.4001 56.596H6.13898C6.90906 56.596 7.53908 55.966 7.53908 55.1959V39.7945C7.53908 39.0245 6.90917 38.3944 6.1391 38.3944ZM56.9998 24.8666V28.5001H42.6895C42.6895 20.6634 36.3366 14.3104 28.4998 14.3104C20.6631 14.3104 14.3103 20.6633 14.3103 28.5001H0.000116373V24.8666C0.000116373 24.214 0.450646 23.666 1.09102 23.5398L5.01248 22.7667L7.83792 15.9465L5.61144 12.6262C5.24792 12.0842 5.3169 11.3781 5.77837 10.9165L10.9166 5.77828C11.3781 5.31693 12.0843 5.24795 12.6262 5.61135L15.9464 7.83784L22.7665 5.01239L23.5397 1.09068C23.6659 0.450416 24.2139 0 24.8666 0H32.1334C32.7859 0 33.3341 0.450416 33.4603 1.09068L34.2335 5.01239L41.0536 7.83784L44.3738 5.61135C44.9157 5.24795 45.6219 5.31693 46.0834 5.77828L51.2216 10.9165C51.683 11.378 51.752 12.0842 51.3886 12.6262L49.162 15.9464L51.9874 22.7666L55.909 23.5397C56.5492 23.6659 56.9999 24.2139 56.9999 24.8665L56.9998 24.8666ZM13.593 18.9574L11.8949 17.977C11.5067 17.7538 11.0111 17.8877 10.7879 18.2759C10.5648 18.6641 10.6987 19.1598 11.0869 19.3829L12.785 20.3633C13.1732 20.5864 13.6689 20.4525 13.892 20.0643C14.1151 19.6761 13.9812 19.1805 13.593 18.9574ZM20.3631 12.7852L19.3827 11.0869C19.1596 10.6988 18.664 10.5649 18.2757 10.788C17.8875 11.0111 17.7536 11.5067 17.9768 11.895L18.9572 13.5931C19.1803 13.9813 19.6758 14.1152 20.0641 13.892C20.4523 13.6689 20.5862 13.1735 20.3631 12.7852ZM29.3141 8.85965C29.3141 8.40993 28.9495 8.04536 28.4998 8.04536C28.0501 8.04536 27.6855 8.40993 27.6855 8.85965V10.8206C27.6855 11.2703 28.0501 11.6348 28.4998 11.6348C28.9495 11.6348 29.3141 11.2703 29.3141 10.8206V8.85965ZM38.7272 10.788C38.339 10.5631 37.842 10.6956 37.6171 11.0838L36.6366 12.7819C36.4117 13.1701 36.5442 13.6672 36.9324 13.892C37.3206 14.1169 37.8176 13.9844 38.0425 13.5962L39.023 11.8981C39.2479 11.5099 39.1154 11.0128 38.7272 10.788ZM46.2118 18.2758C45.9887 17.8876 45.4932 17.7537 45.1049 17.9768L43.4068 18.9572C43.0186 19.1804 42.8847 19.6759 43.1078 20.0642C43.3309 20.4524 43.8265 20.5863 44.2148 20.3632L45.9129 19.3828C46.3011 19.1596 46.4349 18.6641 46.2118 18.2758Z" fill="#FB923C"/>
</svg>
