<svg width="73" height="90" viewBox="0 0 73 90" fill="none" xmlns="http://www.w3.org/2000/svg">
<path fill-rule="evenodd" clip-rule="evenodd" d="M43.8605 74.61L50.8417 89.6051C51.0749 90.1063 51.7743 90.138 52.052 89.6601L57.3348 80.569L67.6925 82.3787C68.2379 82.474 68.6634 81.919 68.4295 81.4172L60.1698 63.6762C58.4682 64.5553 56.4091 68.3826 55.3012 70.0768C52.7967 73.9061 48.2575 75.6812 43.8605 74.61ZM37.367 38.2585L65.5795 5.77277C67.079 4.25852 69.5249 4.25421 71.0349 5.75571C72.5446 7.25702 72.5493 9.69621 71.0515 11.2076C65.9152 16.3915 45.2675 41.3027 40.1073 46.4629C38.5989 47.9715 36.1518 47.9713 34.6434 46.4629L23.9322 35.7518C22.4238 34.2433 22.4238 31.7963 23.9322 30.2877C25.4407 28.779 27.8879 28.779 29.3963 30.2877L37.367 38.2585ZM40.9979 1.55421C47.752 6.60996 46.7545 6.36471 55.5607 6.85465C57.0695 6.93865 58.4545 7.43515 59.6017 8.2489L51.079 18.004C47.0804 14.7311 41.9694 12.7667 36.3991 12.7667C23.5897 12.7667 13.2055 23.1508 13.2055 35.9603C13.2055 48.7699 23.5897 59.154 36.3991 59.154C49.2085 59.154 59.5927 48.7699 59.5927 35.9603C59.5927 33.8473 59.3086 31.8008 58.7791 29.8556C61.0947 27.1759 63.4083 24.4945 65.7295 21.8196L70.3552 26.1878C72.8694 28.5621 73.5123 32.1595 71.9523 35.2457C67.8907 43.2808 68.1927 41.5678 69.2613 50.5076C69.6717 53.9413 67.8414 57.1116 64.6625 58.473C56.386 62.0175 57.7188 60.8995 52.7907 68.4345C50.8979 71.3286 47.458 72.5807 44.1477 71.5802C35.5293 68.9757 37.2689 68.9757 28.6505 71.5802C25.3402 72.5805 21.9003 71.3286 20.0075 68.4345C15.0796 60.8995 16.4122 62.0175 8.13573 58.473C4.95685 57.1116 3.12648 53.9413 3.53691 50.5076L4.22241 44.773C4.40973 43.2045 4.16391 41.8097 3.45123 40.4001L0.845727 35.2457C-0.714273 32.1595 -0.0786488 28.5542 2.44285 26.1878C9.0076 20.0263 8.13798 21.5327 10.1915 12.7667C10.9803 9.39959 13.7845 7.04646 17.2374 6.85446C26.2267 6.3544 24.5922 6.94934 31.8001 1.55402C34.5687 -0.518039 38.2295 -0.518039 40.9979 1.55421ZM28.9377 74.6098C24.5405 75.681 20.0013 73.9061 17.4967 70.0765C16.3887 68.3824 14.3296 64.5548 12.628 63.6758L4.36829 81.4168C4.13466 81.9186 4.5601 82.4738 5.10535 82.3783L15.4632 80.5686L20.746 89.6597C21.0239 90.1375 21.7231 90.106 21.9564 89.6048L28.9377 74.6098Z" fill="#FB923C"/>
</svg>
